<svg width="511" height="512" xmlns="http://www.w3.org/2000/svg">

 <g>
  <title>background</title>
  <rect fill="none" id="canvas_background" height="402" width="582" y="-1" x="-1"/>
 </g>
 <g>
  <title>Layer 1</title>
  <path id="svg_1" fill="#774839" d="m438.73828,245.51172c0,19.46094 -15.77344,35.23437 -35.23437,35.23437c-19.45703,0 -35.23438,-15.77343 -35.23438,-35.23437c0,-19.46094 15.77735,-35.23438 35.23438,-35.23438c19.46093,0 35.23437,15.77344 35.23437,35.23438zm0,0"/>
  <path id="svg_2" fill="#774839" d="m100.00781,245.51172c0,19.46094 -15.77343,35.23437 -35.23437,35.23437c-19.46094,0 -35.23438,-15.77343 -35.23438,-35.23437c0,-19.46094 15.77344,-35.23438 35.23438,-35.23438c19.46094,0 35.23437,15.77344 35.23437,35.23438zm0,0"/>
  <path id="svg_3" fill="#b2785b" d="m234.14063,158.89453c-98.17188,0 -177.75391,79.58203 -177.75391,177.75l0,153.29688l355.50391,0l0,-153.29688c0,-98.16797 -79.58204,-177.75 -177.75,-177.75zm0,0"/>
  <path id="svg_4" fill="#935b45" d="m254.89453,160.10938c-6.80859,-0.79297 -13.73437,-1.21485 -20.7539,-1.21485c-98.17188,0 -177.75391,79.58203 -177.75391,177.75l0,153.29688l41.51172,0l0,-153.29688c0,-91.14453 68.60937,-166.2539 156.99609,-176.53515zm0,0"/>
  <path id="svg_10" fill="#d8d7da" d="m442.38281,512l-416.48437,0c-14.02735,0 -25.39844,-11.37109 -25.39844,-25.39844c0,-14.02734 11.37109,-25.39453 25.39844,-25.39453l416.48437,0c14.02344,0 25.39453,11.3711 25.39453,25.39453c0,14.02735 -11.37109,25.39844 -25.39453,25.39844zm0,0"/>
  <path id="svg_11" fill="#c6c5ca" d="m54.29688,486.60156c0,-14.02734 11.36718,-25.39453 25.39453,-25.39453l-53.79297,0c-14.02735,0 -25.39844,11.3711 -25.39844,25.39453c0,14.02735 11.37109,25.39844 25.39844,25.39844l53.79297,0c-14.02735,0 -25.39453,-11.37109 -25.39453,-25.39844zm0,0"/>
  <g id="svg_14" fill="#222223">
   <path id="svg_15" d="m249.59375,336.14453c-5.94922,0 -11.37109,-2.27344 -15.45312,-5.99609c-4.08204,3.72265 -9.50782,5.99609 -15.45313,5.99609c-12.65625,0 -22.95312,-10.29687 -22.95312,-22.95312c0,-4.14063 3.35546,-7.5 7.5,-7.5c4.14062,0 7.5,3.35937 7.5,7.5c0,4.38672 3.5664,7.95312 7.95312,7.95312c4.38281,0 7.95313,-3.5664 7.95313,-7.95312c0,-4.14063 3.35546,-7.5 7.5,-7.5c4.14062,0 7.5,3.35937 7.5,7.5c0,4.38672 3.5664,7.95312 7.95312,7.95312c4.38281,0 7.94922,-3.5664 7.94922,-7.95312c0,-4.14063 3.35937,-7.5 7.5,-7.5c4.14453,0 7.5,3.35937 7.5,7.5c0,12.65625 -10.29688,22.95312 -22.94922,22.95312zm0,0"/>
   <path id="svg_16" d="m299.75,322.51172c-4.14453,0 -7.5,-3.35547 -7.5,-7.5l0,-11.69531c0,-4.14453 3.35547,-7.5 7.5,-7.5s7.5,3.35547 7.5,7.5l0,11.69531c0,4.14453 -3.35547,7.5 -7.5,7.5zm0,0"/>
   <path id="svg_17" d="m168.52734,322.51172c-4.14062,0 -7.5,-3.35547 -7.5,-7.5l0,-11.69531c0,-4.14453 3.35938,-7.5 7.5,-7.5c4.14454,0 7.5,3.35547 7.5,7.5l0,11.69531c0,4.14453 -3.35546,7.5 -7.5,7.5zm0,0"/>
  </g>
  <path id="svg_18" fill="#eaeaea" d="m305.60156,344.62891l-11.69922,0c-4.14453,0 -7.5,-3.35938 -7.5,-7.5c0,-4.14453 3.35547,-7.5 7.5,-7.5l11.69922,0c4.14063,0 7.5,3.35547 7.5,7.5c0,4.14062 -3.35937,7.5 -7.5,7.5zm0,0"/>
  <path id="svg_19" fill="#eaeaea" d="m174.375,344.62891l-11.69531,0c-4.14453,0 -7.5,-3.35938 -7.5,-7.5c0,-4.14453 3.35547,-7.5 7.5,-7.5l11.69922,0c4.14062,0 7.5,3.35547 7.5,7.5c0,4.14062 -3.35938,7.5 -7.50391,7.5zm0,0"/>
 </g>
</svg>